HIERARCHY
ROOT Hips
{
	OFFSET 0.000000 0.000000 0.000000
	CHANNELS 6 Xposition Yposition Zposition Xrotation Yrotation Zrotation
	JOINT LeftUpLeg_virtual
	{
		OFFSET 0.000000 0.000000 0.000000
		CHANNELS 3 Xrotation Yrotation Zrotation
		JOINT LeftUpLeg
		{
			OFFSET 11.394100 -6.187798 -0.413800
			CHANNELS 3 Xrotation Yrotation Zrotation
			JOINT LeftLeg
			{
				OFFSET 0.430247 -32.302673 3.732800
				CHANNELS 3 Xrotation Yrotation Zrotation
				JOINT LeftFoot
				{
					OFFSET -0.430247 -48.264931 -6.423300
					CHANNELS 3 Xrotation Yrotation Zrotation
					JOINT LeftToeBase
					{
						OFFSET 4.230900 -16.068199 23.438400
						CHANNELS 3 Xrotation Yrotation Zrotation
						JOINT LeftToe_End
						{
							OFFSET 4.510700 0.695400 19.974600
							CHANNELS 3 Xrotation Yrotation Zrotation
							End Site
							{
								OFFSET 0 0 0
							}
						}
					}
				}
			}
		}
	}
	JOINT RightUpLeg_virtual
	{
		OFFSET 0.000000 0.000000 0.000000
		CHANNELS 3 Xrotation Yrotation Zrotation
		JOINT RightUpLeg
		{
			OFFSET -11.333700 -6.187798 -0.413800
			CHANNELS 3 Xrotation Yrotation Zrotation
			JOINT RightLeg
			{
				OFFSET -0.430392 -32.302628 3.733000
				CHANNELS 3 Xrotation Yrotation Zrotation
				JOINT RightFoot
				{
					OFFSET 0.430392 -48.264973 -6.423500
					CHANNELS 3 Xrotation Yrotation Zrotation
					JOINT RightToeBase
					{
						OFFSET -4.230900 -16.068199 23.438400
						CHANNELS 3 Xrotation Yrotation Zrotation
						JOINT RightToe_End
						{
							OFFSET -4.510700 0.695400 19.974600
							CHANNELS 3 Xrotation Yrotation Zrotation
							End Site
							{
								OFFSET 0 0 0
							}
						}
					}
				}
			}
		}
	}
	JOINT Spine_virtual
	{
		OFFSET 0.000000 0.000000 0.000000
		CHANNELS 3 Xrotation Yrotation Zrotation
		JOINT Spine
		{
			OFFSET -0.002400 12.777504 0.315300
			CHANNELS 3 Xrotation Yrotation Zrotation
			JOINT Spine1
			{
				OFFSET -0.002067 5.816869 0.032633
				CHANNELS 3 Xrotation Yrotation Zrotation
				JOINT Spine1_split
				{
					OFFSET -0.002067 5.816869 0.032633
					CHANNELS 3 Xrotation Yrotation Zrotation
					JOINT Spine2
					{
						OFFSET -0.002067 5.816869 0.032633
						CHANNELS 3 Xrotation Yrotation Zrotation
						JOINT Neck_virtual
						{
							OFFSET 0.000000 0.000000 0.000000
							CHANNELS 3 Xrotation Yrotation Zrotation
							JOINT Neck
							{
								OFFSET -0.003700 21.199493 -0.826900
								CHANNELS 3 Xrotation Yrotation Zrotation
								JOINT Head
								{
									OFFSET 0.000000 20.442200 4.834800
									CHANNELS 3 Xrotation Yrotation Zrotation
									JOINT HeadTop_End
									{
										OFFSET 0.000000 34.668396 4.968400
										CHANNELS 3 Xrotation Yrotation Zrotation
										End Site
										{
											OFFSET 0 0 0
										}
									}
								}
							}
						}
						JOINT LeftShoulder_virtual
						{
							OFFSET 0.000000 0.000000 0.000000
							CHANNELS 3 Xrotation Yrotation Zrotation
							JOINT LeftShoulder
							{
								OFFSET 3.288150 8.794197 -1.372250
								CHANNELS 3 Xrotation Yrotation Zrotation
								JOINT LeftShoulder_split
								{
									OFFSET 3.288150 8.794197 -1.372250
									CHANNELS 3 Xrotation Yrotation Zrotation
									JOINT LeftArm
									{
										OFFSET 11.953299 -2.279007 -0.146200
										CHANNELS 3 Xrotation Yrotation Zrotation
										JOINT LeftForeArm
										{
											OFFSET 18.448900 0.000000 0.000000
											CHANNELS 3 Xrotation Yrotation Zrotation
											JOINT LeftHand
											{
												OFFSET 29.527798 0.000000 0.000000
												CHANNELS 3 Xrotation Yrotation Zrotation
												End Site
												{
													OFFSET 0 0 0
												}
											}
										}
									}
								}
							}
						}
						JOINT RightShoulder_virtual
						{
							OFFSET 0.000000 0.000000 0.000000
							CHANNELS 3 Xrotation Yrotation Zrotation
							JOINT RightShoulder
							{
								OFFSET -3.249400 8.794197 -1.372250
								CHANNELS 3 Xrotation Yrotation Zrotation
								JOINT RightShoulder_split
								{
									OFFSET -3.249400 8.794197 -1.372250
									CHANNELS 3 Xrotation Yrotation Zrotation
									JOINT RightArm
									{
										OFFSET -11.953299 -2.279007 -0.146200
										CHANNELS 3 Xrotation Yrotation Zrotation
										JOINT RightForeArm
										{
											OFFSET -18.448900 0.000000 0.000000
											CHANNELS 3 Xrotation Yrotation Zrotation
											JOINT RightHand
											{
												OFFSET -29.527802 0.000000 0.000000
												CHANNELS 3 Xrotation Yrotation Zrotation
												End Site
												{
													OFFSET 0 0 0
												}
											}
										}
									}
								}
							}
						}
					}
				}
			}
		}
	}
}
MOTION
Frames: 10
Frame Time: 0.03333333
2.902201 75.946274 -48.645153 0.000000 0.000000 0.000000 33.996037 -78.860988 30.647452 -54.906969 -7.858962 23.891303 75.025482 13.236611 0.784043 -10.339078 0.587307 -28.822913 -7.459448 -3.164106 6.832952 0.000000 0.000000 0.000000 33.550115 -78.012262 30.839072 -58.975159 0.450294 -10.694241 81.390774 14.082233 -7.320329 -23.153462 -2.224268 5.431668 -1.081570 1.881899 0.588610 0.000000 0.000000 0.000000 43.107872 -82.793012 40.939778 5.160496 10.945027 -4.107004 10.132785 18.887783 -6.269231 0.694793 -5.617004 1.911221 0.000000 0.000000 0.000000 12.664552 18.252250 -7.803960 -0.893089 2.067487 3.294090 4.551099 2.667146 -6.449205 0.000000 0.000000 0.000000 10.300453 18.519223 -7.104399 4.386371 -4.140528 0.225948 1.870044 3.120805 0.268823 -75.646565 -30.496429 -61.275102 54.585940 -75.644919 53.545927 0.000000 0.000000 0.000000 9.373735 18.628415 -6.617847 5.374040 7.950508 -2.174472 -2.153292 6.283330 -3.518793 -48.459697 -4.279588 29.492091 -15.553777 43.893118 1.808806 0.000000 0.000000 0.000000 
3.712499 75.037193 -49.465160 0.000000 0.000000 0.000000 42.939630 -75.376246 39.257752 -60.477548 -8.837437 23.853049 75.982153 12.381280 0.383772 -9.986161 -0.670041 -27.749720 -7.395785 -3.510613 7.394405 0.000000 0.000000 0.000000 39.974819 -74.995409 37.468218 -63.660075 -0.098273 -11.431529 82.471338 12.564170 -5.606708 -24.277685 -2.268188 4.135385 1.037358 1.504528 -0.037785 0.000000 0.000000 0.000000 48.312858 -78.922317 45.848229 5.700113 10.791538 -4.149347 10.849151 18.181660 -6.478119 0.904686 -6.286309 1.870575 0.000000 0.000000 0.000000 12.597873 17.700712 -7.596687 -1.021426 4.380722 3.799231 2.026793 5.287318 -10.224348 0.000000 0.000000 0.000000 10.673825 17.867205 -7.423657 3.585450 -4.456432 -2.248466 0.085657 2.545328 -0.157383 -61.378614 -21.680195 -55.945311 50.913050 -71.519491 48.525236 0.000000 0.000000 0.000000 9.793391 18.257579 -6.534170 4.731973 8.005890 0.802469 -1.558025 6.459146 -4.237531 -42.666508 -10.376925 30.128490 -15.123634 43.042110 5.138203 0.000000 0.000000 0.000000 
4.341017 74.678444 -49.867306 0.000000 0.000000 0.000000 48.036464 -72.077490 44.573234 -65.215193 -9.170693 23.391460 76.017014 11.222052 0.168969 -9.282629 -1.712230 -25.812455 -7.120561 -3.855118 7.290973 0.000000 0.000000 0.000000 42.930529 -71.911756 41.124699 -67.508538 0.027390 -12.995109 82.811631 11.470530 -4.371010 -23.792438 -1.917481 4.722513 1.144744 1.085991 -0.804992 0.000000 0.000000 0.000000 49.504965 -75.118721 47.059689 6.074728 10.568236 -3.923570 11.452950 17.455660 -6.479389 1.259150 -6.389440 1.618713 0.000000 0.000000 0.000000 12.357399 17.070219 -7.178060 -1.295636 6.453879 4.116022 0.396373 7.873154 -13.790213 0.000000 0.000000 0.000000 10.924994 17.184122 -7.489320 3.042974 -4.071632 -3.998115 -0.904663 1.947965 -0.515837 -47.544841 -12.206024 -52.705213 40.407976 -67.628216 37.793981 0.000000 0.000000 0.000000 10.132703 17.761512 -6.305264 4.258498 8.134077 3.434441 -0.736096 6.991659 -4.394203 -35.363619 -17.612725 32.406294 -14.679055 43.219996 7.599709 0.000000 0.000000 0.000000 
4.818287 74.606544 -50.334515 0.000000 0.000000 0.000000 49.320571 -69.080383 46.589356 -69.089269 -9.078676 22.394505 75.688024 9.789592 0.197227 -8.038298 -2.318311 -23.954684 -6.367169 -4.049772 6.605981 0.000000 0.000000 0.000000 43.860791 -69.209651 43.023440 -70.105601 1.033790 -14.673166 82.366508 10.823529 -3.907173 -22.877970 -1.269866 6.884634 0.203252 0.646830 -1.385396 0.000000 0.000000 0.000000 49.010852 -71.859409 46.842797 6.194024 10.270204 -3.493975 11.922009 16.731088 -6.346493 1.400525 -5.880759 1.544774 0.000000 0.000000 0.000000 11.996554 16.363216 -6.676813 -1.715982 8.172242 4.205832 -0.366152 10.006018 -16.818687 0.000000 0.000000 0.000000 11.101465 16.457020 -7.338228 2.696088 -3.406078 -4.941044 -0.833539 1.217934 -0.765127 -34.729965 -3.832793 -52.824024 28.533149 -63.981073 26.342216 0.000000 0.000000 0.000000 10.479514 17.177984 -6.008882 3.868893 8.628304 5.935320 -0.025742 7.321403 -4.163119 -26.182844 -24.539606 36.846572 -14.107242 43.137743 9.034861 0.000000 0.000000 0.000000 
5.051664 74.711197 -50.403980 0.000000 0.000000 0.000000 47.127270 -66.463860 45.496136 -71.747524 -8.635283 20.959704 74.779746 8.337780 0.389594 -6.198353 -2.286676 -22.944484 -5.238927 -3.994512 5.471056 0.000000 0.000000 0.000000 43.571669 -66.913205 43.625316 -70.574699 2.658427 -15.913685 80.812722 10.130692 -3.928846 -22.682780 -0.735517 8.946731 0.030384 0.251012 -1.491589 0.000000 0.000000 0.000000 46.693448 -69.228509 45.075827 6.088671 9.861199 -3.020594 12.253490 15.978104 -6.179375 1.332166 -4.717298 1.459335 0.000000 0.000000 0.000000 11.659637 15.584251 -6.200970 -2.284122 9.505772 4.087806 -0.464313 11.522316 -19.083620 0.000000 0.000000 0.000000 11.261747 15.678219 -7.097840 2.461031 -2.807581 -5.177062 -0.114919 0.726526 -0.907644 -23.786767 2.419308 -56.117811 17.978921 -60.165265 16.348959 0.000000 0.000000 0.000000 10.878347 16.509640 -5.706398 3.453053 9.480009 8.322749 0.519708 7.554739 -3.705230 -16.353976 -29.745371 42.689208 -13.434430 41.971704 9.499352 0.000000 0.000000 0.000000 
5.075117 75.111099 -50.221035 0.000000 0.000000 0.000000 42.740138 -64.194353 42.344304 -72.886219 -7.741501 19.143244 73.020719 7.158006 0.643345 -4.094359 -1.675586 -22.574749 -3.778266 -3.746384 4.043417 0.000000 0.000000 0.000000 41.750399 -64.928065 42.552966 -68.768107 4.240788 -16.691632 78.115323 9.038491 -3.969004 -23.357348 -0.699964 9.905094 1.266709 -0.010524 -1.126674 0.000000 0.000000 0.000000 43.153337 -67.124415 42.169762 5.857669 9.380300 -2.626335 12.480764 15.227169 -6.066101 1.283435 -3.576038 1.620012 0.000000 0.000000 0.000000 11.368031 14.795148 -5.817319 -2.899843 10.475307 3.757268 -0.087431 12.454432 -20.539543 0.000000 0.000000 0.000000 11.410774 14.871888 -6.847242 2.300111 -2.377984 -4.942838 0.320213 0.263361 -1.125696 -15.413165 6.401809 -61.184520 10.312872 -55.983058 9.019572 0.000000 0.000000 0.000000 11.251849 15.792579 -5.462694 2.937594 10.530588 10.529886 0.834280 7.231109 -3.093149 -7.996038 -32.645005 48.448038 -12.745478 39.584532 9.198365 0.000000 0.000000 0.000000 
4.780200 75.911781 -49.730869 0.000000 0.000000 0.000000 37.287249 -62.289426 38.100957 -72.224107 -6.368278 17.314034 70.408698 6.375410 0.897509 -2.158002 -0.787112 -22.191368 -2.296144 -3.459825 2.639492 0.000000 0.000000 0.000000 38.618450 -63.304481 39.972391 -65.195406 5.384980 -17.203674 74.544924 7.586443 -3.858327 -24.215462 -1.297644 9.953039 2.720545 -0.076912 -0.480633 0.000000 0.000000 0.000000 38.248827 -65.248367 37.965371 5.558638 8.860236 -2.397678 12.621391 14.474926 -6.013264 1.330676 -2.764195 1.761376 0.000000 0.000000 0.000000 11.162867 14.066083 -5.574882 -3.460844 11.052358 3.260142 0.440818 12.925622 -21.150934 0.000000 0.000000 0.000000 11.582859 14.075770 -6.622867 2.144914 -2.090904 -4.572178 0.324736 -0.074000 -1.480417 -9.948613 8.874688 -66.493094 6.152736 -51.923453 4.743172 0.000000 0.000000 0.000000 11.529971 15.094402 -5.259324 2.372832 11.428922 12.365301 0.986189 6.457266 -2.370321 -2.548436 -33.793409 52.831858 -12.240635 36.772024 8.586540 0.000000 0.000000 0.000000 
4.235480 77.219337 -49.007389 0.000000 0.000000 0.000000 31.633724 -60.912160 33.483585 -69.669965 -4.529063 15.790747 67.082641 5.908115 1.088487 -0.964901 0.160066 -21.300988 -1.100311 -3.269655 1.423585 0.000000 0.000000 0.000000 34.264737 -61.907728 36.021885 -60.380122 5.726957 -17.802738 70.463804 5.936771 -3.583195 -24.396756 -2.302025 9.802329 3.203984 0.053115 0.061862 0.000000 0.000000 0.000000 32.795621 -63.462177 33.151816 5.301215 8.352807 -2.362937 12.677407 13.764322 -5.994314 1.389557 -2.485953 1.804540 0.000000 0.000000 0.000000 11.059714 13.435611 -5.436504 -3.868969 11.298509 2.659725 0.823197 13.216420 -21.018253 0.000000 0.000000 0.000000 11.729136 13.338320 -6.425710 2.008133 -1.729939 -4.405945 -0.351501 -0.042340 -2.279361 -7.214530 10.526297 -70.755774 4.861031 -48.034385 2.925047 0.000000 0.000000 0.000000 11.653397 14.419742 -5.093912 1.818419 11.947913 13.642660 1.436237 5.435658 -1.584096 -0.064813 -33.877257 55.580333 -11.906709 34.501321 7.950024 0.000000 0.000000 0.000000 
3.448653 78.991432 -48.325481 0.000000 0.000000 0.000000 26.223681 -59.922800 28.732553 -65.648800 -2.422988 14.705578 63.339083 5.498618 1.191016 -0.856742 0.948351 -19.414669 -0.417353 -3.281423 0.555267 0.000000 0.000000 0.000000 28.969978 -60.713873 31.040198 -54.983159 5.141190 -18.634551 66.172526 4.383849 -3.184593 -23.658734 -3.367089 10.057505 2.763523 0.306054 0.340402 0.000000 0.000000 0.000000 27.307019 -61.726148 28.117218 5.053545 7.891863 -2.457876 12.631755 13.127405 -5.917418 1.393916 -2.548912 1.728290 0.000000 0.000000 0.000000 10.996938 12.909898 -5.340662 -4.097103 11.140909 2.060739 0.895007 13.499467 -20.278104 0.000000 0.000000 0.000000 11.788737 12.706174 -6.169349 1.902848 -1.074069 -4.562838 -0.944230 0.161940 -2.945968 -6.372288 11.432810 -73.169289 5.275411 -44.135088 2.589411 0.000000 0.000000 0.000000 11.588245 13.780018 -4.937828 1.349400 12.051827 14.322079 2.224830 4.249518 -0.765111 0.653932 -33.400400 57.325914 -11.543717 33.326262 7.405802 0.000000 0.000000 0.000000 
2.508559 81.100967 -47.645916 0.000000 0.000000 0.000000 20.947210 -59.059649 23.686401 -60.619520 -0.306998 14.161044 59.441975 4.850951 1.238841 -1.491512 1.396105 -16.829637 -0.292509 -3.467964 0.068207 0.000000 0.000000 0.000000 23.211522 -59.480784 25.417736 -49.111010 3.771151 -19.484962 61.360288 3.049612 -2.728591 -22.664169 -4.212820 10.649467 2.351152 0.591249 0.395945 0.000000 0.000000 0.000000 22.024351 -60.078911 23.015466 4.797605 7.469757 -2.585739 12.473639 12.548380 -5.698400 1.190158 -2.469557 1.490037 0.000000 0.000000 0.000000 10.971390 12.440671 -5.209675 -4.184819 10.652008 1.601030 0.549298 13.883089 -19.049864 0.000000 0.000000 0.000000 11.731884 12.169996 -5.796007 1.832020 -0.201511 -4.996934 -1.418658 0.425990 -3.222517 -6.533195 11.427292 -73.702802 6.390175 -40.505829 2.915294 0.000000 0.000000 0.000000 11.395461 13.169283 -4.738457 1.003884 11.844781 14.468335 3.111161 3.222101 -0.046956 1.051878 -32.742014 58.747447 -11.022533 33.244406 6.973847 0.000000 0.000000 0.000000 
